<?xml version="1.0" encoding="utf-8"?>
<!-- Generator: Adobe Illustrator 28.0.0, SVG Export Plug-In . SVG Version: 6.00 Build 0)  -->
<svg version="1.1" id="Calque_1" xmlns="http://www.w3.org/2000/svg" xmlns:xlink="http://www.w3.org/1999/xlink" x="0px" y="0px"
	 viewBox="0 0 500 500" style="enable-background:new 0 0 500 500;" xml:space="preserve">
<style type="text/css">
	.st0{fill:#FFEA00;}
	.st1{fill:#0E5A2A;}
</style>
<rect class="st0" width="500" height="500"/>
<g>
	<path d="M43.4,302.5l15-155.6h52.7L126,302.5H96.5l-2.2-25.2H75.5l-1.8,25.2H43.4z M77.8,252.5H92l-6.9-79.1h-1.4L77.8,252.5z"/>
	<path d="M137.8,199.8h-5.6l0.2-24.1h5.4v-9.1c0-14.2,7.1-21.4,21.4-21.4c6.8,0,12.2,0.8,16.3,2.5v19.6c-1.2-0.4-2.2-0.5-2.9-0.5
		c-1.7,0-2.8,0.6-3.3,1.8c-0.5,1.2-0.7,3-0.7,5.4v1.6h6.9v24.4h-6.2v102.3h-31.5V199.8z"/>
	<path d="M185.6,169.9h31.7v14.7c1.6-5.2,4.3-9.2,8.2-12c3.9-2.8,8.8-4.3,14.6-4.3v26.4c-4.5,0-9.4,0.6-14.8,1.9
		c-5.4,1.3-8.1,2.7-8.1,4.4v101.4h-31.7V169.9z"/>
	<path d="M247.7,161v-22.1h31.7V161H247.7z M247.7,302.5V169.9h31.7v132.6H247.7z"/>
	<path d="M300.4,292.9c-6.4-7.4-9.6-18.7-9.6-33.9v-40.9c0-11.5,1.2-20.8,3.7-28c2.5-7.2,6.6-12.6,12.5-16.2
		c5.9-3.6,14-5.4,24.4-5.4c11.3,0,20.6,3,27.7,8.9c7.1,5.9,10.7,14.2,10.7,24.8v20.3h-32.2v-18.7c0-3.5-0.5-6.2-1.4-8.1
		c-1-1.9-2.8-2.8-5.6-2.8c-5.2,0-7.8,3.7-7.8,11v64.3c0,3,0.6,5.6,1.9,7.7c1.3,2.1,3.2,3.2,5.7,3.2s4.4-1,5.7-3.1
		c1.3-2.1,1.8-4.7,1.7-8l-0.2-22.3h32.2V269c0,10.9-3.5,19.4-10.6,25.6c-7.1,6.2-16.2,9.3-27.4,9.3
		C317.2,303.9,306.8,300.2,300.4,292.9z"/>
	<path d="M383.8,293.7c-3.8-6.8-5.7-16.6-5.7-29.2c0-10.4,1.4-18.4,4.1-23.9c2.7-5.6,6.5-9.6,11.3-12.2c4.8-2.6,12.2-5.5,22.1-8.6
		l8.7-2.9v-0.4v-13.2c0-3.5-0.7-6.2-2.1-8.1c-1.4-1.9-3.1-2.8-5-2.8c-1.7,0-3.2,0.8-4.4,2.4c-1.3,1.6-1.9,3.7-1.9,6.3v8h-30.8v-4.3
		c0-13,3-22.3,9.1-27.9c6.1-5.6,16-8.3,29.8-8.3c11,0,19.9,2.9,26.8,8.6c6.9,5.7,10.3,13.9,10.3,24.4v101.1h-31.5v-15.8
		c-1.6,5.4-4.1,9.7-7.5,12.7c-3.4,3-7.5,4.5-12.2,4.5C394.6,303.9,387.6,300.5,383.8,293.7z M422.6,276.3c1-2,1.5-4.4,1.5-7.3V232
		c-4.7,1.8-8.2,4.1-10.4,6.9c-2.2,2.8-3.4,6.6-3.4,11.6v17c0,7.8,2.4,11.8,7.1,11.8C419.8,279.3,421.5,278.3,422.6,276.3z"/>
</g>
<g>
	<path class="st1" d="M279.1,360.4V313h17.5c0.5,0,0.9,0,1.4,0s1,0.1,1.6,0.2c2.3,0.4,4.3,1.2,5.9,2.5c1.7,1.3,3,3,3.9,4.9
		s1.4,4.2,1.4,6.5c0,3.4-0.9,6.3-2.8,8.9s-4.3,4.2-7.5,4.9l-0.5,0.5h-18.1v19H279.1z M281.9,338.7h14.7c0.4,0,0.8,0,1.3-0.1
		c0.5,0,1-0.1,1.6-0.2c1.8-0.4,3.4-1.1,4.6-2.2c1.2-1.1,2.2-2.4,2.8-4s1-3.2,1-5c0-1.8-0.3-3.5-1-5c-0.6-1.6-1.6-2.9-2.8-4
		c-1.2-1.1-2.8-1.8-4.6-2.2c-0.5-0.1-1-0.2-1.6-0.2c-0.5,0-1,0-1.3,0h-14.7V338.7z M308.8,360.4l-9.4-19.3l2.4-1.8l10.3,21.1H308.8z
		"/>
	<path class="st1" d="M316.1,360.4l17.3-47.4h3l17.3,47.4h-3l-16.8-46.2h2L319,360.4H316.1z M322.7,348.1v-2.6h24.2v2.6H322.7z"/>
	<path class="st1" d="M359.5,360.4V313h13.9c0.6,0,1.5,0,2.7,0c1.3,0,2.4,0.1,3.6,0.3c3.5,0.5,6.4,1.8,8.7,4c2.3,2.2,4,4.9,5.1,8.3
		c1.1,3.3,1.7,7,1.7,11.1c0,4.1-0.6,7.8-1.7,11.1c-1.1,3.3-2.8,6.1-5.1,8.3c-2.3,2.2-5.2,3.5-8.7,4c-1.1,0.2-2.3,0.2-3.6,0.3
		c-1.3,0-2.2,0-2.7,0H359.5z M362.4,357.7h10.9c1.1,0,2.1,0,3.2-0.1c1.1-0.1,2-0.2,2.7-0.3c3.1-0.5,5.6-1.7,7.5-3.6
		c1.9-1.9,3.3-4.3,4.2-7.2c0.9-2.9,1.3-6.2,1.3-9.8s-0.4-6.9-1.3-9.8c-0.9-2.9-2.3-5.3-4.2-7.2c-1.9-1.9-4.4-3.1-7.5-3.6
		c-0.7-0.1-1.6-0.2-2.7-0.3c-1.1-0.1-2.1-0.1-3.1-0.1h-10.9V357.7z"/>
	<path class="st1" d="M403.1,360.4V313h2.8v47.4H403.1z"/>
	<path class="st1" d="M434.4,361.4c-4.7,0-8.7-1.1-11.8-3.2c-3.2-2.1-5.5-5-7.1-8.7c-1.6-3.7-2.4-8-2.4-12.8c0-4.8,0.8-9.1,2.4-12.8
		s3.9-6.6,7.1-8.7c3.2-2.1,7.1-3.2,11.8-3.2s8.7,1.1,11.8,3.2c3.2,2.1,5.5,5,7.1,8.7s2.4,8,2.4,12.8c0,4.8-0.8,9.1-2.4,12.8
		c-1.6,3.7-3.9,6.6-7.1,8.7C443,360.4,439.1,361.4,434.4,361.4z M434.4,358.6c4.1,0,7.4-0.9,10.2-2.8c2.7-1.9,4.7-4.5,6.1-7.8
		c1.4-3.3,2-7.1,2-11.4c0-4.3-0.7-8.1-2-11.4s-3.4-5.9-6.1-7.8c-2.7-1.9-6.1-2.8-10.2-2.8s-7.4,0.9-10.1,2.8
		c-2.7,1.9-4.7,4.5-6.1,7.8c-1.4,3.3-2.1,7.1-2.1,11.4c0,4.3,0.6,8.1,2,11.4c1.4,3.3,3.4,5.9,6.1,7.8
		C426.9,357.7,430.3,358.6,434.4,358.6z"/>
</g>
</svg>
