<?xml version="1.0" encoding="UTF-8"?> <svg xmlns="http://www.w3.org/2000/svg" xmlns:xlink="http://www.w3.org/1999/xlink" width="68px" height="68px" viewBox="0 0 68 68" version="1.1"><defs><clipPath id="clip1"><path d="M 6 46 L 16 46 L 16 55 L 6 55 Z M 6 46 "></path></clipPath><clipPath id="clip2"><path d="M 2.441406 33.898438 C 2.441406 51.351562 16.589844 65.5 34.039062 65.5 C 51.492188 65.5 65.636719 51.351562 65.636719 33.898438 C 65.636719 16.449219 51.492188 2.300781 34.039062 2.300781 C 16.589844 2.300781 2.441406 16.449219 2.441406 33.898438 "></path></clipPath><clipPath id="clip3"><path d="M 3 42 L 13 42 L 13 49 L 3 49 Z M 3 42 "></path></clipPath><clipPath id="clip4"><path d="M 2.441406 33.898438 C 2.441406 51.351562 16.589844 65.5 34.039062 65.5 C 51.492188 65.5 65.636719 51.351562 65.636719 33.898438 C 65.636719 16.449219 51.492188 2.300781 34.039062 2.300781 C 16.589844 2.300781 2.441406 16.449219 2.441406 33.898438 "></path></clipPath><clipPath id="clip5"><path d="M 4 46 L 12 46 L 12 52 L 4 52 Z M 4 46 "></path></clipPath><clipPath id="clip6"><path d="M 2.441406 33.898438 C 2.441406 51.351562 16.589844 65.5 34.039062 65.5 C 51.492188 65.5 65.636719 51.351562 65.636719 33.898438 C 65.636719 16.449219 51.492188 2.300781 34.039062 2.300781 C 16.589844 2.300781 2.441406 16.449219 2.441406 33.898438 "></path></clipPath><clipPath id="clip7"><path d="M 9 48 L 17 48 L 17 57 L 9 57 Z M 9 48 "></path></clipPath><clipPath id="clip8"><path d="M 2.441406 33.898438 C 2.441406 51.351562 16.589844 65.5 34.039062 65.5 C 51.492188 65.5 65.636719 51.351562 65.636719 33.898438 C 65.636719 16.449219 51.492188 2.300781 34.039062 2.300781 C 16.589844 2.300781 2.441406 16.449219 2.441406 33.898438 "></path></clipPath><clipPath id="clip9"><path d="M 14 47 L 24 47 L 24 63 L 14 63 Z M 14 47 "></path></clipPath><clipPath id="clip10"><path d="M 2.441406 33.898438 C 2.441406 51.351562 16.589844 65.5 34.039062 65.5 C 51.492188 65.5 65.636719 51.351562 65.636719 33.898438 C 65.636719 16.449219 51.492188 2.300781 34.039062 2.300781 C 16.589844 2.300781 2.441406 16.449219 2.441406 33.898438 "></path></clipPath><clipPath id="clip11"><path d="M 11 45 L 22 45 L 22 60 L 11 60 Z M 11 45 "></path></clipPath><clipPath id="clip12"><path d="M 2.441406 33.898438 C 2.441406 51.351562 16.589844 65.5 34.039062 65.5 C 51.492188 65.5 65.636719 51.351562 65.636719 33.898438 C 65.636719 16.449219 51.492188 2.300781 34.039062 2.300781 C 16.589844 2.300781 2.441406 16.449219 2.441406 33.898438 "></path></clipPath><clipPath id="clip13"><path d="M 3 41 L 10 41 L 10 45 L 3 45 Z M 3 41 "></path></clipPath><clipPath id="clip14"><path d="M 2.441406 33.898438 C 2.441406 51.351562 16.589844 65.5 34.039062 65.5 C 51.492188 65.5 65.636719 51.351562 65.636719 33.898438 C 65.636719 16.449219 51.492188 2.300781 34.039062 2.300781 C 16.589844 2.300781 2.441406 16.449219 2.441406 33.898438 "></path></clipPath><clipPath id="clip15"><path d="M 57 40 L 66 40 L 66 49 L 57 49 Z M 57 40 "></path></clipPath><clipPath id="clip16"><path d="M 2.441406 33.898438 C 2.441406 51.351562 16.589844 65.5 34.039062 65.5 C 51.492188 65.5 65.636719 51.351562 65.636719 33.898438 C 65.636719 16.449219 51.492188 2.300781 34.039062 2.300781 C 16.589844 2.300781 2.441406 16.449219 2.441406 33.898438 "></path></clipPath><clipPath id="clip17"><path d="M 60 39 L 66 39 L 66 45 L 60 45 Z M 60 39 "></path></clipPath><clipPath id="clip18"><path d="M 2.441406 33.898438 C 2.441406 51.351562 16.589844 65.5 34.039062 65.5 C 51.492188 65.5 65.636719 51.351562 65.636719 33.898438 C 65.636719 16.449219 51.492188 2.300781 34.039062 2.300781 C 16.589844 2.300781 2.441406 16.449219 2.441406 33.898438 "></path></clipPath><clipPath id="clip19"><path d="M 52 47 L 62 47 L 62 61 L 52 61 Z M 52 47 "></path></clipPath><clipPath id="clip20"><path d="M 2.441406 33.898438 C 2.441406 51.351562 16.589844 65.5 34.039062 65.5 C 51.492188 65.5 65.636719 51.351562 65.636719 33.898438 C 65.636719 16.449219 51.492188 2.300781 34.039062 2.300781 C 16.589844 2.300781 2.441406 16.449219 2.441406 33.898438 "></path></clipPath><clipPath id="clip21"><path d="M 25 49 L 31 49 L 31 66 L 25 66 Z M 25 49 "></path></clipPath><clipPath id="clip22"><path d="M 2.441406 33.898438 C 2.441406 51.351562 16.589844 65.5 34.039062 65.5 C 51.492188 65.5 65.636719 51.351562 65.636719 33.898438 C 65.636719 16.449219 51.492188 2.300781 34.039062 2.300781 C 16.589844 2.300781 2.441406 16.449219 2.441406 33.898438 "></path></clipPath><clipPath id="clip23"><path d="M 30 46 L 33 46 L 33 66 L 30 66 Z M 30 46 "></path></clipPath><clipPath id="clip24"><path d="M 2.441406 33.898438 C 2.441406 51.351562 16.589844 65.5 34.039062 65.5 C 51.492188 65.5 65.636719 51.351562 65.636719 33.898438 C 65.636719 16.449219 51.492188 2.300781 34.039062 2.300781 C 16.589844 2.300781 2.441406 16.449219 2.441406 33.898438 "></path></clipPath><clipPath id="clip25"><path d="M 34 47 L 36 47 L 36 66 L 34 66 Z M 34 47 "></path></clipPath><clipPath id="clip26"><path d="M 2.441406 33.898438 C 2.441406 51.351562 16.589844 65.5 34.039062 65.5 C 51.492188 65.5 65.636719 51.351562 65.636719 33.898438 C 65.636719 16.449219 51.492188 2.300781 34.039062 2.300781 C 16.589844 2.300781 2.441406 16.449219 2.441406 33.898438 "></path></clipPath><clipPath id="clip27"><path d="M 37 47 L 41 47 L 41 66 L 37 66 Z M 37 47 "></path></clipPath><clipPath id="clip28"><path d="M 2.441406 33.898438 C 2.441406 51.351562 16.589844 65.5 34.039062 65.5 C 51.492188 65.5 65.636719 51.351562 65.636719 33.898438 C 65.636719 16.449219 51.492188 2.300781 34.039062 2.300781 C 16.589844 2.300781 2.441406 16.449219 2.441406 33.898438 "></path></clipPath><clipPath id="clip29"><path d="M 40 47 L 45 47 L 45 66 L 40 66 Z M 40 47 "></path></clipPath><clipPath id="clip30"><path d="M 2.441406 33.898438 C 2.441406 51.351562 16.589844 65.5 34.039062 65.5 C 51.492188 65.5 65.636719 51.351562 65.636719 33.898438 C 65.636719 16.449219 51.492188 2.300781 34.039062 2.300781 C 16.589844 2.300781 2.441406 16.449219 2.441406 33.898438 "></path></clipPath><clipPath id="clip31"><path d="M 43 50 L 50 50 L 50 66 L 43 66 Z M 43 50 "></path></clipPath><clipPath id="clip32"><path d="M 2.441406 33.898438 C 2.441406 51.351562 16.589844 65.5 34.039062 65.5 C 51.492188 65.5 65.636719 51.351562 65.636719 33.898438 C 65.636719 16.449219 51.492188 2.300781 34.039062 2.300781 C 16.589844 2.300781 2.441406 16.449219 2.441406 33.898438 "></path></clipPath><clipPath id="clip33"><path d="M 43 44 L 54 44 L 54 66 L 43 66 Z M 43 44 "></path></clipPath><clipPath id="clip34"><path d="M 2.441406 33.898438 C 2.441406 51.351562 16.589844 65.5 34.039062 65.5 C 51.492188 65.5 65.636719 51.351562 65.636719 33.898438 C 65.636719 16.449219 51.492188 2.300781 34.039062 2.300781 C 16.589844 2.300781 2.441406 16.449219 2.441406 33.898438 "></path></clipPath><clipPath id="clip35"><path d="M 49 48 L 58 48 L 58 63 L 49 63 Z M 49 48 "></path></clipPath><clipPath id="clip36"><path d="M 2.441406 33.898438 C 2.441406 51.351562 16.589844 65.5 34.039062 65.5 C 51.492188 65.5 65.636719 51.351562 65.636719 33.898438 C 65.636719 16.449219 51.492188 2.300781 34.039062 2.300781 C 16.589844 2.300781 2.441406 16.449219 2.441406 33.898438 "></path></clipPath><clipPath id="clip37"><path d="M 18 48 L 26 48 L 26 65 L 18 65 Z M 18 48 "></path></clipPath><clipPath id="clip38"><path d="M 2.441406 33.898438 C 2.441406 51.351562 16.589844 65.5 34.039062 65.5 C 51.492188 65.5 65.636719 51.351562 65.636719 33.898438 C 65.636719 16.449219 51.492188 2.300781 34.039062 2.300781 C 16.589844 2.300781 2.441406 16.449219 2.441406 33.898438 "></path></clipPath><clipPath id="clip39"><path d="M 21 47 L 29 47 L 29 66 L 21 66 Z M 21 47 "></path></clipPath><clipPath id="clip40"><path d="M 2.441406 33.898438 C 2.441406 51.351562 16.589844 65.5 34.039062 65.5 C 51.492188 65.5 65.636719 51.351562 65.636719 33.898438 C 65.636719 16.449219 51.492188 2.300781 34.039062 2.300781 C 16.589844 2.300781 2.441406 16.449219 2.441406 33.898438 "></path></clipPath><clipPath id="clip41"><path d="M 56 44 L 66 44 L 66 54 L 56 54 Z M 56 44 "></path></clipPath><clipPath id="clip42"><path d="M 2.441406 33.898438 C 2.441406 51.351562 16.589844 65.5 34.039062 65.5 C 51.492188 65.5 65.636719 51.351562 65.636719 33.898438 C 65.636719 16.449219 51.492188 2.300781 34.039062 2.300781 C 16.589844 2.300781 2.441406 16.449219 2.441406 33.898438 "></path></clipPath><clipPath id="clip43"><path d="M 52 43 L 65 43 L 65 58 L 52 58 Z M 52 43 "></path></clipPath><clipPath id="clip44"><path d="M 2.441406 33.898438 C 2.441406 51.351562 16.589844 65.5 34.039062 65.5 C 51.492188 65.5 65.636719 51.351562 65.636719 33.898438 C 65.636719 16.449219 51.492188 2.300781 34.039062 2.300781 C 16.589844 2.300781 2.441406 16.449219 2.441406 33.898438 "></path></clipPath></defs><g id="surface1"><path style=" stroke:none;fill-rule:nonzero;fill:rgb(100%,100%,100%);fill-opacity:1;" d="M 65.640625 33.898438 C 65.640625 51.351562 51.492188 65.5 34.039062 65.5 C 16.589844 65.5 2.441406 51.351562 2.441406 33.898438 C 2.441406 16.449219 16.589844 2.300781 34.039062 2.300781 C 51.492188 2.300781 65.640625 16.449219 65.640625 33.898438 "></path><g clip-path="url(#clip1)" clip-rule="nonzero"><g clip-path="url(#clip2)" clip-rule="nonzero"><path style=" stroke:none;fill-rule:nonzero;fill:rgb(19.607843%,32.54902%,60.392157%);fill-opacity:1;" d="M 7.316406 54.476562 C 11.929688 50.242188 15.273438 46.441406 15.144531 46.308594 C 15.023438 46.1875 12.046875 49.429688 6.84375 53.960938 C 7.003906 54.132812 7.15625 54.304688 7.316406 54.476562 "></path></g></g><g clip-path="url(#clip3)" clip-rule="nonzero"><g clip-path="url(#clip4)" clip-rule="nonzero"><path style=" stroke:none;fill-rule:nonzero;fill:rgb(19.607843%,32.54902%,60.392157%);fill-opacity:1;" d="M 4.082031 48.152344 C 8.472656 45.355469 12.347656 42.625 12.285156 42.527344 C 12.25 42.472656 10.929688 43.292969 8.035156 45.042969 C 6.511719 45.964844 5.160156 46.785156 3.929688 47.527344 C 3.980469 47.734375 4.03125 47.941406 4.082031 48.152344 "></path></g></g><g clip-path="url(#clip5)" clip-rule="nonzero"><g clip-path="url(#clip6)" clip-rule="nonzero"><path style=" stroke:none;fill-rule:nonzero;fill:rgb(19.607843%,32.54902%,60.392157%);fill-opacity:1;" d="M 4.75 51.558594 C 7.066406 49.792969 9.28125 48.007812 11.371094 46.222656 C 9.644531 47.554688 7.328125 49.300781 4.527344 51.300781 C 4.601562 51.386719 4.679688 51.472656 4.75 51.558594 "></path></g></g><g clip-path="url(#clip7)" clip-rule="nonzero"><g clip-path="url(#clip8)" clip-rule="nonzero"><path style=" stroke:none;fill-rule:nonzero;fill:rgb(19.607843%,32.54902%,60.392157%);fill-opacity:1;" d="M 9.734375 56.964844 C 10.863281 55.769531 12.191406 54.292969 13.613281 52.5625 C 14.832031 51.082031 16.414062 48.882812 16.335938 48.96875 C 14.792969 50.765625 12.488281 53.335938 9.523438 56.269531 C 9.441406 56.351562 9.359375 56.429688 9.277344 56.511719 C 9.429688 56.664062 9.582031 56.816406 9.734375 56.964844 "></path></g></g><g clip-path="url(#clip9)" clip-rule="nonzero"><g clip-path="url(#clip10)" clip-rule="nonzero"><path style=" stroke:none;fill-rule:nonzero;fill:rgb(19.607843%,32.54902%,60.392157%);fill-opacity:1;" d="M 15.554688 62.285156 C 16.640625 60.441406 17.546875 58.816406 18.285156 57.488281 C 20.640625 53.246094 23.378906 47.859375 23.257812 47.792969 C 23.148438 47.734375 21.085938 51.429688 19.488281 54.132812 C 18.535156 55.746094 16.972656 58.355469 14.792969 61.605469 C 15.046875 61.835938 15.300781 62.058594 15.554688 62.285156 "></path></g></g><g clip-path="url(#clip11)" clip-rule="nonzero"><g clip-path="url(#clip12)" clip-rule="nonzero"><path style=" stroke:none;fill-rule:nonzero;fill:rgb(19.607843%,32.54902%,60.392157%);fill-opacity:1;" d="M 12.507812 59.546875 C 14.042969 57.535156 15.628906 55.332031 17.234375 52.914062 C 19.320312 49.769531 20.90625 47.0625 21.972656 45.167969 C 19.207031 49.472656 16.675781 52.941406 14.757812 55.453125 C 13.8125 56.691406 12.871094 57.882812 11.941406 59.03125 C 12.128906 59.203125 12.320312 59.375 12.507812 59.546875 "></path></g></g><g clip-path="url(#clip13)" clip-rule="nonzero"><g clip-path="url(#clip14)" clip-rule="nonzero"><path style=" stroke:none;fill-rule:nonzero;fill:rgb(19.607843%,32.54902%,60.392157%);fill-opacity:1;" d="M 3.5625 44.824219 C 4.171875 44.484375 4.789062 44.136719 5.398438 43.773438 C 5.945312 43.457031 9.234375 41.519531 9.230469 41.515625 L 9.230469 41.519531 C 7.355469 42.472656 5.445312 43.367188 3.539062 44.261719 C 3.546875 44.449219 3.550781 44.640625 3.5625 44.824219 "></path></g></g><g clip-path="url(#clip15)" clip-rule="nonzero"><g clip-path="url(#clip16)" clip-rule="nonzero"><path style=" stroke:none;fill-rule:nonzero;fill:rgb(19.607843%,32.54902%,60.392157%);fill-opacity:1;" d="M 66.425781 48.113281 C 66.71875 48.359375 67.019531 48.617188 67.324219 48.882812 C 67.371094 48.648438 67.417969 48.410156 67.460938 48.171875 C 66.1875 47.121094 64.84375 46.066406 63.402344 45 C 62.027344 43.980469 60.039062 42.5625 57.546875 40.972656 C 57.425781 40.894531 62.238281 44.574219 66.425781 48.113281 "></path></g></g><g clip-path="url(#clip17)" clip-rule="nonzero"><g clip-path="url(#clip18)" clip-rule="nonzero"><path style=" stroke:none;fill-rule:nonzero;fill:rgb(19.607843%,32.54902%,60.392157%);fill-opacity:1;" d="M 67.507812 44.214844 C 67.710938 44.359375 67.90625 44.496094 68.101562 44.632812 C 68.140625 44.445312 68.175781 44.257812 68.214844 44.070312 C 66.648438 43.019531 65.574219 42.351562 64.792969 41.878906 C 62.636719 40.578125 60.285156 39.269531 60.234375 39.355469 C 60.179688 39.445312 63.167969 41.1875 67.507812 44.214844 "></path></g></g><g clip-path="url(#clip19)" clip-rule="nonzero"><g clip-path="url(#clip20)" clip-rule="nonzero"><path style=" stroke:none;fill-rule:nonzero;fill:rgb(19.607843%,32.54902%,60.392157%);fill-opacity:1;" d="M 61.171875 59.847656 C 59.679688 57.519531 58.46875 55.792969 57.695312 54.710938 C 55.03125 50.996094 52.164062 47.414062 52.035156 47.507812 C 51.84375 47.644531 56.054688 53.042969 60.507812 60.375 C 60.734375 60.199219 60.953125 60.027344 61.171875 59.847656 "></path></g></g><g clip-path="url(#clip21)" clip-rule="nonzero"><g clip-path="url(#clip22)" clip-rule="nonzero"><path style=" stroke:none;fill-rule:nonzero;fill:rgb(19.607843%,32.54902%,60.392157%);fill-opacity:1;" d="M 26.609375 67.601562 C 26.792969 66.9375 26.972656 66.265625 27.148438 65.582031 C 29.328125 57.105469 30.457031 49.621094 30.207031 49.566406 C 29.957031 49.511719 29.140625 56.957031 25.898438 67.441406 C 26.132812 67.496094 26.371094 67.546875 26.609375 67.601562 "></path></g></g><g clip-path="url(#clip23)" clip-rule="nonzero"><g clip-path="url(#clip24)" clip-rule="nonzero"><path style=" stroke:none;fill-rule:nonzero;fill:rgb(19.607843%,32.54902%,60.392157%);fill-opacity:1;" d="M 31.203125 68.519531 C 33.109375 56.402344 32.984375 46.792969 32.875 46.785156 C 32.789062 46.777344 32.628906 51.441406 31.664062 58.40625 C 31.332031 60.816406 30.859375 64.214844 30.054688 68.304688 C 30.433594 68.378906 30.816406 68.449219 31.203125 68.519531 "></path></g></g><g clip-path="url(#clip25)" clip-rule="nonzero"><g clip-path="url(#clip26)" clip-rule="nonzero"><path style=" stroke:none;fill-rule:nonzero;fill:rgb(19.607843%,32.54902%,60.392157%);fill-opacity:1;" d="M 34.660156 69.058594 C 34.980469 69.101562 35.304688 69.144531 35.625 69.183594 C 35.886719 64.863281 36.050781 59.496094 35.839844 53.890625 C 35.777344 52.253906 35.367188 47.800781 35.351562 47.425781 C 35.351562 47.425781 35.351562 47.421875 35.351562 47.421875 C 35.332031 47.421875 35.578125 58.5 34.660156 69.058594 "></path></g></g><g clip-path="url(#clip27)" clip-rule="nonzero"><g clip-path="url(#clip28)" clip-rule="nonzero"><path style=" stroke:none;fill-rule:nonzero;fill:rgb(19.607843%,32.54902%,60.392157%);fill-opacity:1;" d="M 39.222656 69.152344 C 39.640625 69.105469 40.058594 69.050781 40.476562 68.996094 C 40.171875 61.597656 39.34375 56.53125 39.066406 54.90625 C 38.542969 51.878906 37.4375 47.085938 37.460938 47.234375 C 37.953125 50.214844 38.5 54.15625 38.851562 58.8125 C 39.132812 62.566406 39.230469 66.039062 39.222656 69.152344 "></path></g></g><g clip-path="url(#clip29)" clip-rule="nonzero"><g clip-path="url(#clip30)" clip-rule="nonzero"><path style=" stroke:none;fill-rule:nonzero;fill:rgb(19.607843%,32.54902%,60.392157%);fill-opacity:1;" d="M 41.753906 55.066406 C 42.25 56.734375 43.203125 61.800781 43.855469 68.4375 C 44.210938 68.367188 44.558594 68.289062 44.910156 68.210938 C 44.515625 65.539062 44.011719 62.640625 43.339844 59.527344 C 42.210938 54.3125 40.445312 47.777344 40.433594 47.78125 C 41.4375 53.605469 41.753906 55.066406 41.753906 55.066406 "></path></g></g><g clip-path="url(#clip31)" clip-rule="nonzero"><g clip-path="url(#clip32)" clip-rule="nonzero"><path style=" stroke:none;fill-rule:nonzero;fill:rgb(19.607843%,32.54902%,60.392157%);fill-opacity:1;" d="M 48.457031 67.269531 C 48.792969 67.164062 49.125 67.050781 49.460938 66.933594 C 48.238281 62.386719 46.453125 56.78125 43.808594 50.5 C 43.773438 50.421875 45.382812 55.164062 46.785156 60.308594 C 47.425781 62.664062 47.976562 64.984375 48.457031 67.269531 "></path></g></g><g clip-path="url(#clip33)" clip-rule="nonzero"><g clip-path="url(#clip34)" clip-rule="nonzero"><path style=" stroke:none;fill-rule:nonzero;fill:rgb(19.607843%,32.54902%,60.392157%);fill-opacity:1;" d="M 53.550781 65.023438 C 53.519531 64.933594 53.488281 64.84375 53.453125 64.753906 C 48.8125 52.488281 43.90625 44.359375 43.839844 44.390625 C 43.777344 44.421875 48.664062 52.90625 52.863281 65.5 C 53.089844 65.339844 53.320312 65.179688 53.550781 65.023438 "></path></g></g><g clip-path="url(#clip35)" clip-rule="nonzero"><g clip-path="url(#clip36)" clip-rule="nonzero"><path style=" stroke:none;fill-rule:nonzero;fill:rgb(19.607843%,32.54902%,60.392157%);fill-opacity:1;" d="M 56.75 62.949219 C 57 62.789062 57.253906 62.625 57.503906 62.464844 C 53.292969 54.027344 49.777344 48.871094 49.730469 48.898438 C 49.695312 48.917969 51.796875 52.410156 54.933594 59.058594 C 55.554688 60.382812 56.160156 61.664062 56.75 62.949219 "></path></g></g><g clip-path="url(#clip37)" clip-rule="nonzero"><g clip-path="url(#clip38)" clip-rule="nonzero"><path style=" stroke:none;fill-rule:nonzero;fill:rgb(19.607843%,32.54902%,60.392157%);fill-opacity:1;" d="M 18.566406 64.925781 C 19.089844 63.882812 19.507812 63.015625 19.8125 62.371094 C 23.527344 54.535156 25.386719 48.683594 25.296875 48.644531 C 25.199219 48.605469 22.96875 55.445312 18.078125 64.503906 C 18.238281 64.644531 18.402344 64.785156 18.566406 64.925781 "></path></g></g><g clip-path="url(#clip39)" clip-rule="nonzero"><g clip-path="url(#clip40)" clip-rule="nonzero"><path style=" stroke:none;fill-rule:nonzero;fill:rgb(19.607843%,32.54902%,60.392157%);fill-opacity:1;" d="M 22.996094 66.660156 C 24.097656 63.683594 25.109375 60.558594 25.992188 57.25 C 27.097656 53.113281 27.753906 49.65625 28.132812 47.40625 C 26.304688 54.707031 24.054688 61.023438 21.789062 66.355469 C 22.195312 66.449219 22.59375 66.550781 22.996094 66.660156 "></path></g></g><g clip-path="url(#clip41)" clip-rule="nonzero"><g clip-path="url(#clip42)" clip-rule="nonzero"><path style=" stroke:none;fill-rule:nonzero;fill:rgb(19.607843%,32.54902%,60.392157%);fill-opacity:1;" d="M 66.09375 53.402344 C 66.1875 53.167969 66.269531 52.925781 66.351562 52.683594 C 65.710938 52.058594 65.09375 51.472656 64.507812 50.921875 C 60.332031 47.03125 56.96875 44.203125 56.875 44.300781 C 56.777344 44.410156 60.730469 47.710938 66.09375 53.402344 "></path></g></g><g clip-path="url(#clip43)" clip-rule="nonzero"><g clip-path="url(#clip44)" clip-rule="nonzero"><path style=" stroke:none;fill-rule:nonzero;fill:rgb(19.607843%,32.54902%,60.392157%);fill-opacity:1;" d="M 63.8125 57.273438 C 63.949219 57.109375 64.082031 56.941406 64.210938 56.773438 C 57.863281 48.902344 52.589844 43.855469 52.578125 43.863281 C 52.570312 43.871094 56.539062 47.910156 61.578125 54.355469 C 62.003906 54.898438 62.804688 55.925781 63.8125 57.273438 "></path></g></g><path style=" stroke:none;fill-rule:nonzero;fill:rgb(18.823529%,32.54902%,60.392157%);fill-opacity:1;" d="M 35.5 24.820312 L 34.507812 24.820312 L 34.507812 26.449219 L 35.5 26.449219 C 36.097656 26.449219 36.375 26.140625 36.375 25.625 C 36.375 25.140625 36.097656 24.820312 35.5 24.820312 M 35.59375 23.496094 C 37.199219 23.496094 38.003906 24.417969 38.003906 25.558594 C 38.003906 26.382812 37.554688 27.160156 36.546875 27.457031 L 38.058594 30.054688 L 36.253906 30.054688 L 34.890625 27.578125 L 34.507812 27.578125 L 34.507812 30.054688 L 32.910156 30.054688 L 32.910156 23.496094 Z M 35.59375 23.496094 "></path><path style=" stroke:none;fill-rule:nonzero;fill:rgb(18.823529%,32.54902%,60.392157%);fill-opacity:1;" d="M 41.863281 25.261719 L 41.058594 27.664062 L 42.675781 27.664062 Z M 43.085938 28.898438 L 40.636719 28.898438 L 40.246094 30.054688 L 38.570312 30.054688 L 40.945312 23.496094 L 42.796875 23.496094 L 45.171875 30.054688 L 43.480469 30.054688 Z M 43.085938 28.898438 "></path><path style=" stroke:none;fill-rule:nonzero;fill:rgb(18.823529%,32.54902%,60.392157%);fill-opacity:1;" d="M 48.246094 28.671875 C 49.449219 28.671875 50.160156 27.980469 50.160156 26.773438 C 50.160156 25.570312 49.449219 24.859375 48.246094 24.859375 L 47.488281 24.859375 L 47.488281 28.671875 Z M 51.785156 26.773438 C 51.785156 28.71875 50.441406 30.054688 48.347656 30.054688 L 45.890625 30.054688 L 45.890625 23.496094 L 48.347656 23.496094 C 50.441406 23.496094 51.785156 24.820312 51.785156 26.773438 "></path><path style=" stroke:none;fill-rule:nonzero;fill:rgb(18.823529%,32.54902%,60.392157%);fill-opacity:1;" d="M 52.683594 23.496094 L 54.28125 23.496094 L 54.28125 30.054688 L 52.683594 30.054688 Z M 52.683594 23.496094 "></path><path style=" stroke:none;fill-rule:nonzero;fill:rgb(18.823529%,32.54902%,60.392157%);fill-opacity:1;" d="M 9.484375 31.476562 C 11.042969 31.476562 12.222656 32.355469 12.59375 33.773438 L 10.839844 33.773438 C 10.566406 33.214844 10.074219 32.933594 9.464844 32.933594 C 8.484375 32.933594 7.808594 33.664062 7.808594 34.820312 C 7.808594 35.980469 8.484375 36.710938 9.464844 36.710938 C 10.074219 36.710938 10.566406 36.429688 10.839844 35.867188 L 12.59375 35.867188 C 12.222656 37.289062 11.042969 38.160156 9.484375 38.160156 C 7.546875 38.160156 6.183594 36.785156 6.183594 34.820312 C 6.183594 32.859375 7.546875 31.476562 9.484375 31.476562 "></path><path style=" stroke:none;fill-rule:nonzero;fill:rgb(18.823529%,32.54902%,60.392157%);fill-opacity:1;" d="M 16.679688 36.71875 C 17.726562 36.71875 18.410156 35.960938 18.410156 34.8125 C 18.410156 33.644531 17.726562 32.90625 16.679688 32.90625 C 15.613281 32.90625 14.941406 33.644531 14.941406 34.8125 C 14.941406 35.960938 15.613281 36.71875 16.679688 36.71875 M 16.679688 38.175781 C 14.820312 38.175781 13.304688 36.785156 13.304688 34.8125 C 13.304688 32.839844 14.820312 31.457031 16.679688 31.457031 C 18.546875 31.457031 20.035156 32.839844 20.035156 34.8125 C 20.035156 36.785156 18.539062 38.175781 16.679688 38.175781 "></path><path style=" stroke:none;fill-rule:nonzero;fill:rgb(18.823529%,32.54902%,60.392157%);fill-opacity:1;" d="M 20.890625 31.550781 L 22.492188 31.550781 L 22.492188 35.476562 C 22.492188 36.25 22.875 36.699219 23.632812 36.699219 C 24.386719 36.699219 24.789062 36.25 24.789062 35.476562 L 24.789062 31.550781 L 26.386719 31.550781 L 26.386719 35.464844 C 26.386719 37.28125 25.117188 38.175781 23.601562 38.175781 C 22.078125 38.175781 20.890625 37.28125 20.890625 35.464844 Z M 20.890625 31.550781 "></path><path style=" stroke:none;fill-rule:nonzero;fill:rgb(18.823529%,32.54902%,60.392157%);fill-opacity:1;" d="M 30.097656 32.878906 L 29.105469 32.878906 L 29.105469 34.503906 L 30.097656 34.503906 C 30.695312 34.503906 30.976562 34.195312 30.976562 33.679688 C 30.976562 33.195312 30.695312 32.878906 30.097656 32.878906 M 30.191406 31.550781 C 31.796875 31.550781 32.601562 32.476562 32.601562 33.617188 C 32.601562 34.4375 32.152344 35.214844 31.144531 35.511719 L 32.65625 38.113281 L 30.855469 38.113281 L 29.488281 35.632812 L 29.105469 35.632812 L 29.105469 38.113281 L 27.507812 38.113281 L 27.507812 31.550781 Z M 30.191406 31.550781 "></path><path style=" stroke:none;fill-rule:nonzero;fill:rgb(18.823529%,32.54902%,60.392157%);fill-opacity:1;" d="M 58.542969 28.664062 C 59.589844 28.664062 60.273438 27.90625 60.273438 26.757812 C 60.273438 25.589844 59.589844 24.851562 58.542969 24.851562 C 57.476562 24.851562 56.804688 25.589844 56.804688 26.757812 C 56.804688 27.90625 57.476562 28.664062 58.542969 28.664062 M 58.542969 30.121094 C 56.683594 30.121094 55.167969 28.730469 55.167969 26.757812 C 55.167969 24.785156 56.683594 23.402344 58.542969 23.402344 C 60.414062 23.402344 61.898438 24.785156 61.898438 26.757812 C 61.898438 28.730469 60.402344 30.121094 58.542969 30.121094 "></path><path style=" stroke:none;fill-rule:nonzero;fill:rgb(18.823529%,32.54902%,60.392157%);fill-opacity:1;" d="M 33.246094 31.550781 L 38.320312 31.550781 L 38.320312 32.832031 L 36.582031 32.832031 L 36.582031 38.113281 L 34.984375 38.113281 L 34.984375 32.832031 L 33.246094 32.832031 Z M 33.246094 31.550781 "></path><path style=" stroke:none;fill-rule:nonzero;fill:rgb(18.823529%,32.54902%,60.392157%);fill-opacity:1;" d="M 46.46875 31.550781 L 48.066406 31.550781 L 48.066406 38.113281 L 46.46875 38.113281 Z M 46.46875 31.550781 "></path><path style=" stroke:none;fill-rule:nonzero;fill:rgb(18.823529%,32.54902%,60.392157%);fill-opacity:1;" d="M 54.972656 31.550781 L 56.570312 31.550781 L 56.570312 38.113281 L 54.972656 38.113281 Z M 54.972656 31.550781 "></path><path style=" stroke:none;fill-rule:nonzero;fill:rgb(18.823529%,32.54902%,60.392157%);fill-opacity:1;" d="M 61.75 32.832031 L 59.328125 32.832031 L 59.328125 34.15625 L 61.46875 34.15625 L 61.46875 35.390625 L 59.328125 35.390625 L 59.328125 36.832031 L 61.75 36.832031 L 61.75 38.113281 L 57.730469 38.113281 L 57.730469 31.550781 L 61.75 31.550781 Z M 61.75 32.832031 "></path><path style=" stroke:none;fill-rule:nonzero;fill:rgb(18.823529%,32.54902%,60.392157%);fill-opacity:1;" d="M 51.601562 38.175781 C 50.1875 38.175781 49.085938 37.476562 49.039062 36.148438 L 50.738281 36.148438 C 50.785156 36.652344 51.105469 36.894531 51.550781 36.894531 C 52.019531 36.894531 52.320312 36.664062 52.320312 36.277344 C 52.320312 35.066406 49.039062 35.71875 49.058594 33.390625 C 49.058594 32.148438 50.074219 31.457031 51.449219 31.457031 C 52.878906 31.457031 53.84375 32.164062 53.910156 33.417969 L 52.179688 33.417969 C 52.152344 33 51.851562 32.746094 51.421875 32.738281 C 51.039062 32.726562 50.75 32.921875 50.75 33.335938 C 50.75 34.476562 53.992188 33.960938 53.992188 36.15625 C 53.992188 37.261719 53.132812 38.175781 51.601562 38.175781 "></path><path style=" stroke:none;fill-rule:nonzero;fill:rgb(18.823529%,32.54902%,60.392157%);fill-opacity:1;" d="M 42.226562 36.71875 C 43.273438 36.71875 43.957031 35.960938 43.957031 34.8125 C 43.957031 33.644531 43.273438 32.90625 42.226562 32.90625 C 41.160156 32.90625 40.488281 33.644531 40.488281 34.8125 C 40.488281 35.960938 41.160156 36.71875 42.226562 36.71875 M 42.226562 38.175781 C 40.367188 38.175781 38.851562 36.785156 38.851562 34.8125 C 38.851562 32.839844 40.367188 31.457031 42.226562 31.457031 C 44.097656 31.457031 45.582031 32.839844 45.582031 34.8125 C 45.582031 36.785156 44.085938 38.175781 42.226562 38.175781 "></path></g></svg> 