<svg fill="none" height="48" viewBox="0 0 333 48" width="333" xmlns="http://www.w3.org/2000/svg"><path d="m274.096 10.1426h-3.846v7.6122h3.846v21.9661h-3.846v7.6122h3.846 10.173 3.845 13.261v-7.6104-.0018-3.8052h-8.322v3.8052h-4.939-3.845v-7.177h7.084v-7.6122h-7.084v-7.1769h8.784v3.8051h8.322v-3.8051-7.6122h-17.106z" fill="#ff000d"/><path d="m87.9024 10.1426c-11.0733 0-19.9649 8.3594-19.9649 18.6204 0 10.2611 8.9969 18.5701 19.8596 18.5701s19.9109-8.3595 19.9109-18.7699c0-10.4105-8.8376-18.4206-19.8056-18.4206zm-.1033 27.6766c-5.2635 0-9.6844-4.0144-9.6844-9.1514 0-5.1371 4.2699-9.0095 9.6844-9.0095 5.4144 0 9.7321 4.0144 9.7321 8.9179 0 4.9036-4.3693 9.2449-9.7321 9.2449z" fill="#000"/><path d="m4.34595 10.1426h-3.84595v7.6122h3.84595v21.9661h-3.84595v7.6122h3.84595 10.17345 3.846v-7.6122h-3.846v-7.177h7.0833v-7.6122h-7.0833v-7.1769h8.7826v3.8051h8.323v-3.8051-7.6122h-17.1056z" fill="#000"/><path d="m230.479 3.35025-22.479-3.35025v6.76191h22.479z" fill="#ff000d"/><path d="m137.358 10.1426h-3.725v7.6122h3.725v13.2387l-12.61-20.6529v-.198h-.12-9.735-.121-3.605v7.6122h3.726v21.9661h-3.726v7.6122h3.726 9.855 3.726v-7.6122h-3.726v-13.2387l12.61 20.6528v.1981h.121 9.733.121l-.121-.1981v-29.3802h3.726v-7.6122h-3.726z" fill="#000"/><path d="m162.531 10.1426h-9.864v7.6122 3.8051h7.872v-3.8051h1.992v21.9661h-3.637v7.6122h3.637 9.623 3.638v-7.6122h-3.638v-21.9661h2.036v3.8051h7.873v-3.8051-7.6122h-9.909z" fill="#000"/><path d="m187.515 10.1426h-3.723v7.6122h3.723v21.9661h-3.723v7.6122h3.723 9.846 3.723v-7.6122h-3.723v-21.9661h3.723v-7.6122h-3.723z" fill="#ff000d"/><path d="m66.2062 21.3432c0-6.1738-4.9285-11.1988-10.9878-11.1988h-2.6631l-4.8918-.0018h-12.5805v7.6122h3.4512v21.9661h-3.4512v7.6122h16.0317v-7.6122h-3.4512v-7.1789h3.0535l6.0208 14.7911h9.4702v-7.6122h-3.4402l-3.2808-8.0587c3.9443-1.7018 6.7192-5.6863 6.7192-10.319zm-13.1194 3.5885h-5.8925v-7.1769h5.8925c1.9446 0 3.5209 1.6065 3.5209 3.5884 0 1.982-1.5763 3.5885-3.5209 3.5885z" fill="#000"/><g fill="#ff000d"><path d="m268.519 21.3432c0-6.1738-5.202-11.1988-11.598-11.1988h-2.811l-5.164-.0018h-13.279v7.6122h3.643v21.9661h-3.643v7.6122h16.922v-7.6122h-3.643v-7.1789h3.224l6.355 14.7911h9.996v-7.6122h-3.631l-3.463-8.0587c4.163-1.7018 7.092-5.6863 7.092-10.319zm-13.848 3.5885h-6.22v-7.1769h6.22c2.053 0 3.716 1.6065 3.716 3.5884 0 1.982-1.663 3.5885-3.716 3.5885z"/><path d="m324.627 10.1426v2.2025c-1.372-.9509-4.53-2.2025-8.287-2.2025-7.512 0-13.236 5.1055-13.236 11.063 0 2.9684.704 5.5203 3.497 7.5341h.004c.732.5866 1.57 1.1152 2.522 1.5748 6.141 3.0039 12.759 2.4024 12.759 6.4076 0 1.8532-1.669 3.0526-3.995 3.0526-2.204 0-3.875-1.5076-4.052-3.8596h-2.861-7.872v11.418h7.872v-2.2026c1.371.9509 4.53 2.2026 8.287 2.2026 7.512 0 13.235-5.1056 13.235-11.063 0-2.9685-.703-5.5203-3.496-7.5342h-.004c-.732-.5865-1.57-1.1152-2.523-1.5748-6.14-3.0039-12.758-2.4024-12.758-6.4076 0-1.8532 1.669-3.0525 3.995-3.0525 2.204 0 3.874 1.5076 4.052 3.8595h10.732v-11.4179z"/><path d="m208.174 10.1426h-3.632v7.6122h3.632v21.9661h-3.632v7.6122h3.632 9.607 3.632 12.525v-7.6104-.0018-3.8052h-7.861v3.8052h-4.664-3.632v-7.177h6.691v-7.6122h-6.691v-7.1769h8.296v3.8051h7.861v-3.8051-7.6122h-16.157z"/></g></svg>