<svg width="136" height="62" viewBox="0 0 136 62" fill="none" xmlns="http://www.w3.org/2000/svg">
<g clip-path="url(#clip0_924_2899)">
<path d="M136 41.2147C136 36.6551 132.397 32.1955 126.584 32.1955C120.771 32.1955 119.025 34.353 117.484 37.5559C117.496 37.6226 117.518 37.6782 117.53 37.7449L117.382 37.7783C116.782 39.1017 116.465 40.6031 116.465 42.1934C116.465 43.7837 116.465 42.438 116.465 42.5604C115.547 41.3482 114.006 40.503 111.762 40.1137L108.453 39.5243C107.377 39.3464 106.742 38.9015 106.742 38.1787C106.742 37.4558 107.524 36.5772 109.314 36.5772C111.105 36.5772 112.51 37.6782 112.771 38.9905L117.382 37.7894C117.416 37.7116 117.45 37.6448 117.484 37.567C116.669 34.353 113.62 32.2066 109.303 32.2066C104.986 32.2066 101.337 34.9424 101.337 38.1898C101.337 41.4371 104.125 43.4056 106.652 43.8504L110.334 44.5065C111.637 44.729 112.045 45.3073 112.045 46.0413C112.045 46.7752 111.229 47.6093 108.997 47.6093C106.765 47.6093 105.756 46.9198 105.428 45.1627L100.884 46.2748V32.6737H95.3768V43.6613C95.3768 45.5186 94.0737 46.9421 92.034 46.9421C89.9943 46.9421 88.7592 45.5186 88.7592 43.6613V32.6737H83.2521V38.8348C82.2436 35.2205 78.9462 32.2066 74.1756 32.2066C69.4051 32.2066 66.9915 34.1195 65.3598 37.0332V32.6848H60.2946V28.5478V16.4147C60.2946 14.5575 61.5977 13.134 63.6374 13.134C65.677 13.134 66.9122 14.5575 66.9122 16.4147V27.4023H72.4193V19.8845C73.1105 24.5109 76.1813 27.8805 80.4533 27.8805C84.7252 27.8805 85.847 26.3458 86.5156 23.5322H87.2635V27.4023H92.7705V20.1736C93.7564 24.9335 97.8244 27.8805 102.731 27.8805C107.637 27.8805 109.088 26.3125 110.765 23.977L106.742 21.308C106.187 22.1421 104.51 23.2097 102.731 23.2097C100.952 23.2097 98.6402 22.0753 98.0057 19.7065H112.068V16.8929C112.068 12.3333 108.465 7.87372 102.652 7.87372C96.8385 7.87372 93.6884 11.1211 92.7592 15.5806V0H87.2521V12.1998H86.5042C85.8357 9.86439 83.6374 7.85148 80.4419 7.85148C77.2465 7.85148 73.0991 11.2212 72.4079 15.8475V14.2461C72.4079 10.9209 70.5496 7.8626 66.3456 7.8626C62.1416 7.8626 61.5864 9.90888 61.0312 12.2109H60.2833V8.34081H54.7762V15.2025C53.5411 10.8653 49.3371 7.8626 44.5439 7.8626C39.7507 7.8626 33.9377 12.1331 33.9377 17.8604C33.9377 23.5878 38.4363 27.8694 44.5439 27.8694C50.6516 27.8694 53.5411 24.9001 54.7762 20.5406V28.5367V32.6737H52.8045C52.6346 32.6737 52.4646 32.6737 52.3059 32.6737C49.2351 32.7516 47.4561 33.5968 46.8215 36.1991H46.0737V32.6737H40.5666V39.5354C39.3314 35.1982 35.1275 32.1955 30.3343 32.1955C25.5411 32.1955 21.3938 35.0759 20.1473 39.2908C19.2068 35.1426 16.204 32.1955 11.9093 32.1955C7.61473 32.1955 6.92351 33.7302 6.22096 36.5439H5.47309V32.6737H0V59.3977H5.50708V47.8651H6.25496C7.00283 50.7121 9.07649 52.2135 11.9433 52.2135C16.238 52.2135 19.2295 49.2775 20.1813 45.1293C21.4278 49.3553 25.3598 52.2135 30.3683 52.2135C35.3768 52.2135 39.3654 49.2441 40.6006 44.8847V51.7352H46.1076V41.3704C46.1076 39.5132 47.4108 37.2445 49.4504 37.2445H51.1615H54.7309V45.6409C54.7309 50.3117 57.5524 51.7352 61.4618 51.7352H65.3711V47.3647C67.1161 50.423 70.4363 52.2135 74.2663 52.2135C78.0963 52.2135 80.6232 50.6454 82.3003 48.31L78.2889 45.6409C77.7337 46.475 76.0567 47.5426 74.2776 47.5426C72.4986 47.5426 70.187 46.4083 69.5524 44.0395H83.2861V45.83C83.2861 49.1552 85.1445 52.2246 89.3484 52.2246C93.5524 52.2246 94.1077 50.1783 94.6629 47.8762H95.4108V51.7464H100.918V47.5982C102.13 50.612 105.167 52.2246 109.031 52.2246C112.895 52.2246 117.088 50.1449 117.496 46.8309C119.139 50.2117 122.618 52.2246 126.674 52.2246C130.731 52.2246 133.031 50.6565 134.708 48.3211L130.697 45.652C130.142 46.4861 128.465 47.5537 126.686 47.5537C124.907 47.5537 122.595 46.4194 121.96 44.0506H136.023V41.2369L136 41.2147ZM102.686 12.2332C104.997 12.2332 106.629 13.9125 106.776 15.4472H98.187C98.8895 13.3675 100.533 12.2332 102.686 12.2332ZM82.7535 12.7781C85.2804 12.7781 87.5581 14.8244 87.5581 17.8493C87.5581 20.8743 85.2918 22.9205 82.7535 22.9205C80.2153 22.9205 77.915 20.8743 77.915 17.8493C77.915 14.8244 80.068 12.7781 82.7535 12.7781ZM44.5779 22.9317C41.8244 22.9317 39.5581 20.9966 39.5581 17.8604C39.5581 14.7243 41.8244 12.7892 44.5779 12.7892C47.3314 12.7892 49.5977 14.8355 49.5977 17.8604C49.5977 20.8854 47.3314 22.9317 44.5779 22.9317ZM10.0397 47.2757C7.51275 47.2757 5.23513 45.2294 5.23513 42.2045C5.23513 39.1796 7.50142 37.1333 10.0397 37.1333C12.5779 37.1333 14.8782 39.1796 14.8782 42.2045C14.8782 45.2294 12.7252 47.2757 10.0397 47.2757ZM30.3683 47.2757C27.6147 47.2757 25.3484 45.3406 25.3484 42.2045C25.3484 39.0683 27.6147 37.1333 30.3683 37.1333C33.1218 37.1333 35.3881 39.1796 35.3881 42.2045C35.3881 45.2294 33.1218 47.2757 30.3683 47.2757ZM65.0878 46.7975H62.0283C60.8725 46.7975 60.238 46.3193 60.238 45.007V37.2334H65.2578C64.4873 38.6902 64.068 40.3806 64.068 42.2045C64.068 44.0283 64.4306 45.4741 65.0765 46.8086L65.0878 46.7975ZM69.6884 39.7912C70.3909 37.7116 72.034 36.5772 74.187 36.5772C76.3399 36.5772 78.1303 38.2565 78.2776 39.7912H69.6884ZM122.096 39.7912C122.81 37.7116 124.442 36.5772 126.595 36.5772C128.748 36.5772 130.538 38.2565 130.686 39.7912H122.096Z" fill="white"/>
<path d="M20.7706 1.66815H26.2776L22.5723 27.3801H17.0652L20.7706 1.66815Z" fill="white"/>
<path d="M33.7451 14.424L31.8981 1.66815H26.391L28.238 14.424H33.7451Z" fill="#00EB1E"/>
<path d="M117.496 37.5559C117.462 37.6338 117.428 37.7005 117.394 37.7783L117.541 37.745C117.53 37.6782 117.518 37.6226 117.496 37.5559Z" fill="white"/>
<path d="M117.496 37.5559C117.462 37.6338 117.428 37.7005 117.394 37.7783L117.541 37.745C117.53 37.6782 117.518 37.6226 117.496 37.5559Z" fill="white"/>
<path d="M66.255 57.4515H67.2295L66.5496 60.9991H68.4306L68.2493 61.9222H65.3938L66.255 57.4626V57.4515Z" fill="white"/>
<path d="M69.6998 57.4515H72.5326L72.3513 58.3745H70.493L70.3344 59.2086H71.9774L71.8074 60.0983H70.1644L69.9831 60.9991H71.9094L71.7281 61.9222H68.8273L69.6885 57.4626L69.6998 57.4515Z" fill="white"/>
<path d="M72.4987 60.6877L73.4278 60.4208C73.4052 60.7878 73.6998 61.0769 74.1757 61.0769C74.6516 61.0769 75.0256 60.8879 75.0256 60.5653C75.0256 60.2428 74.8556 60.2317 74.6063 60.165L74.0284 59.9982C73.5185 59.8536 73.0879 59.4977 73.0879 58.8638C73.0879 57.963 73.8244 57.3736 74.8216 57.3736C75.8188 57.3736 76.2607 57.8184 76.2947 58.5524L75.3542 58.7971C75.3542 58.5747 75.2069 58.2633 74.7536 58.2633C74.3004 58.2633 74.0964 58.4635 74.0964 58.7415C74.0964 59.0195 74.2324 59.0306 74.4477 59.0862L74.9802 59.2308C75.6488 59.4199 76.0227 59.8202 76.0227 60.4319C76.0227 61.3549 75.3315 62 74.1077 62C72.8839 62 72.51 61.4105 72.4987 60.6877Z" fill="white"/>
<path d="M78.0963 57.5849L78.119 57.4626H79.1275L79.4447 61.0547H79.5807L81.2918 57.4626H82.3343L82.3116 57.5849L80.1586 61.9221H78.5722L78.085 57.5849H78.0963Z" fill="white"/>
<path d="M82.1417 60.165C82.1417 58.6637 83.3542 57.3625 84.9746 57.3625C86.595 57.3625 86.9123 58.1521 86.9123 59.2086C86.9123 60.7099 85.6998 62 84.0794 62C82.459 62 82.1417 61.2326 82.1417 60.165ZM84.2607 61.0436C85.1332 61.0436 85.8811 60.2873 85.8811 59.3865C85.8811 58.4857 85.4165 58.3189 84.7819 58.3189C84.1474 58.3189 83.1616 59.0863 83.1616 59.9759C83.1616 60.8656 83.6375 61.0324 84.2607 61.0324V61.0436Z" fill="white"/>
<path d="M87.1955 60.988H88.0453L88.5553 58.3634H87.7054L87.8867 57.4404H90.5496L90.3683 58.3634H89.5184L89.0198 60.988H89.8697L89.6884 61.911H87.0255L87.2068 60.988H87.1955Z" fill="white"/>
<path d="M91.4109 57.4515H94.2437L94.0624 58.3745H92.2041L92.0454 59.2086H93.6885L93.5185 60.0983H91.8754L91.6941 60.9991H93.6205L93.4392 61.9222H90.5383L91.3995 57.4626L91.4109 57.4515Z" fill="white"/>
<path d="M94.2097 60.6877L95.1389 60.4208C95.1162 60.7878 95.4108 61.0769 95.8868 61.0769C96.3627 61.0769 96.7366 60.8879 96.7366 60.5653C96.7366 60.2428 96.5667 60.2317 96.3174 60.165L95.7395 59.9982C95.2295 59.8536 94.7989 59.4977 94.7989 58.8638C94.7989 57.963 95.5355 57.3736 96.5327 57.3736C97.5298 57.3736 97.9718 57.8184 98.0058 58.5524L97.0652 58.7971C97.0652 58.5747 96.9179 58.2633 96.4647 58.2633C96.0114 58.2633 95.8074 58.4635 95.8074 58.7415C95.8074 59.0195 95.9434 59.0306 96.1587 59.0862L96.6913 59.2308C97.3599 59.4199 97.7338 59.8202 97.7338 60.4319C97.7338 61.3549 97.0426 62 95.8188 62C94.595 62 94.221 61.4105 94.2097 60.6877Z" fill="white"/>
<path d="M100.238 57.4515H102.096L102.255 61.0436H102.357L103.048 57.4515H104.011L103.15 61.911H101.28L101.122 58.3189H101.02L100.329 61.911H99.3655L100.227 57.4515H100.238Z" fill="white"/>
<path d="M104.227 60.165C104.227 58.6637 105.439 57.3625 107.06 57.3625C108.68 57.3625 108.997 58.1521 108.997 59.2086C108.997 60.7099 107.785 62 106.164 62C104.544 62 104.227 61.2326 104.227 60.165ZM106.346 61.0436C107.218 61.0436 107.966 60.2873 107.966 59.3865C107.966 58.4857 107.501 58.3189 106.867 58.3189C106.232 58.3189 105.247 59.0863 105.247 59.9759C105.247 60.8656 105.722 61.0324 106.346 61.0324V61.0436Z" fill="white"/>
<path d="M109.462 60.2429L109.994 57.4515H110.98L110.448 60.2317C110.357 60.7211 110.538 61.077 111.105 61.077C111.671 61.077 112 60.7211 112.091 60.2317L112.623 57.4515H113.598L113.065 60.2317C112.85 61.3439 112.136 62 110.946 62C109.756 62 109.258 61.2549 109.462 60.2429Z" fill="white"/>
<path d="M114.062 57.5849L114.085 57.4626H115.094L115.411 61.0547H115.547L117.258 57.4626H118.3L118.278 57.5849L116.125 61.9221H114.538L114.051 57.5849H114.062Z" fill="white"/>
<path d="M118.867 57.4515H121.7L121.518 58.3745H119.66L119.501 59.2086H121.145L120.975 60.0983H119.331L119.15 60.9991H121.077L120.895 61.9222H117.994L118.856 57.4626L118.867 57.4515Z" fill="white"/>
<path d="M122.516 57.4515H123.49L122.81 60.9991H124.691L124.51 61.9222H121.654L122.516 57.4626V57.4515Z" fill="white"/>
<path d="M125.96 57.4515H126.935L126.255 60.9991H128.136L127.955 61.9222H125.099L125.96 57.4626V57.4515Z" fill="white"/>
<path d="M129.394 57.4515H132.227L132.045 58.3745H130.187L130.028 59.2086H131.671L131.501 60.0983H129.858L129.677 60.9991H131.603L131.422 61.9222H128.521L129.382 57.4626L129.394 57.4515Z" fill="white"/>
<path d="M132.204 60.6877L133.133 60.4208C133.111 60.7878 133.405 61.0769 133.881 61.0769C134.357 61.0769 134.731 60.8879 134.731 60.5653C134.731 60.2428 134.561 60.2317 134.312 60.165L133.734 59.9982C133.224 59.8536 132.793 59.4977 132.793 58.8638C132.793 57.963 133.53 57.3736 134.527 57.3736C135.524 57.3736 135.966 57.8184 136 58.5524L135.06 58.7971C135.06 58.5747 134.912 58.2633 134.459 58.2633C134.006 58.2633 133.802 58.4635 133.802 58.7415C133.802 59.0195 133.938 59.0306 134.153 59.0862L134.686 59.2308C135.354 59.4199 135.728 59.8202 135.728 60.4319C135.728 61.3549 135.037 62 133.813 62C132.589 62 132.215 61.4105 132.204 60.6877Z" fill="white"/>
</g>
<defs>
<clipPath id="clip0_924_2899">
<rect width="136" height="62" fill="white"/>
</clipPath>
</defs>
</svg>