<svg width="249" height="115" viewBox="0 0 249 115" fill="none" xmlns="http://www.w3.org/2000/svg">
<g clip-path="url(#clip0_923_3887)">
<path d="M249 76.4466C249 67.9892 242.403 59.7175 231.76 59.7175C221.117 59.7175 217.922 63.7193 215.1 69.6601C215.121 69.7839 215.162 69.887 215.183 70.0108L214.913 70.0727C213.814 72.5274 213.233 75.3121 213.233 78.2619C213.233 81.2117 213.233 78.7157 213.233 78.9426C211.553 76.6942 208.731 75.1265 204.623 74.4045L198.565 73.3112C196.594 72.9812 195.432 72.1561 195.432 70.8152C195.432 69.4744 196.864 67.8448 200.142 67.8448C203.42 67.8448 205.992 69.887 206.47 72.3211L214.913 70.0933C214.976 69.9489 215.038 69.8251 215.1 69.6807C213.606 63.7193 208.026 59.7381 200.121 59.7381C192.217 59.7381 185.536 64.8126 185.536 70.8359C185.536 76.8592 190.64 80.5103 195.266 81.3354L202.009 82.5525C204.395 82.965 205.142 84.0377 205.142 85.3991C205.142 86.7605 203.648 88.3076 199.561 88.3076C195.474 88.3076 193.627 87.0287 193.026 83.7695L184.706 85.8323V60.6045H174.624V80.9848C174.624 84.4296 172.238 87.07 168.503 87.07C164.769 87.07 162.508 84.4296 162.508 80.9848V60.6045H152.425V72.0323C150.578 65.3283 144.541 59.7381 135.807 59.7381C127.073 59.7381 122.654 63.2861 119.666 68.6906V60.6251H110.392V52.9516V30.4466C110.392 27.0018 112.778 24.3614 116.513 24.3614C120.247 24.3614 122.508 27.0018 122.508 30.4466V50.8269H132.591V36.8825C133.857 45.4637 139.479 51.7139 147.3 51.7139C155.122 51.7139 157.176 48.8673 158.4 43.6484H159.769V50.8269H169.852V37.4188C171.657 46.2475 179.105 51.7139 188.088 51.7139C197.071 51.7139 199.727 48.8054 202.797 44.4735L195.432 39.5229C194.416 41.07 191.345 43.0502 188.088 43.0502C184.831 43.0502 180.599 40.9462 179.437 36.5525H205.183V31.3336C205.183 22.8762 198.586 14.6045 187.943 14.6045C177.3 14.6045 171.532 20.6278 169.831 28.8996V0H159.748V22.6287H158.379C157.155 18.2969 153.13 14.5632 147.28 14.5632C141.429 14.5632 133.836 20.8135 132.57 29.3946V26.4242C132.57 20.2565 129.168 14.5839 121.471 14.5839C113.774 14.5839 112.757 18.3794 111.741 22.6493H110.372V15.4709H100.289V28.1982C98.0274 20.1534 90.3304 14.5839 81.5547 14.5839C72.7789 14.5839 62.1359 22.5049 62.1359 33.1283C62.1359 43.7516 70.3723 51.6933 81.5547 51.6933C92.737 51.6933 98.0274 46.1857 100.289 38.0996V52.9309V60.6045H96.6789C96.3677 60.6045 96.0565 60.6045 95.766 60.6045C90.1437 60.7489 86.8865 62.3166 85.7247 67.1435H84.3554V60.6045H74.2726V73.3318C72.0112 65.287 64.3143 59.7175 55.5385 59.7175C46.7627 59.7175 39.1695 65.0601 36.8874 72.878C35.1654 65.1839 29.6676 59.7175 21.8046 59.7175C13.9417 59.7175 12.6761 62.5641 11.3899 67.783H10.0206V60.6045H0V110.173H10.0828V88.7821H11.4521C12.8214 94.0628 16.618 96.8475 21.8669 96.8475C29.7298 96.8475 35.2069 91.4018 36.9496 83.7076C39.2317 91.5462 46.4308 96.8475 55.6007 96.8475C64.7707 96.8475 72.0735 91.3399 74.3349 83.2538V95.9605H84.4177V76.7354C84.4177 73.2906 86.8035 69.0825 90.5379 69.0825H93.6706H100.206V84.6565C100.206 93.3202 105.372 95.9605 112.529 95.9605H119.687V87.8538C122.882 93.5265 128.961 96.8475 135.973 96.8475C142.985 96.8475 147.612 93.939 150.682 89.6072L143.338 84.6565C142.321 86.2036 139.251 88.1839 135.994 88.1839C132.736 88.1839 128.504 86.0798 127.342 81.6861H152.487V85.0072C152.487 91.1749 155.89 96.8682 163.586 96.8682C171.283 96.8682 172.3 93.0727 173.317 88.8027H174.686V95.9812H184.769V88.287C186.989 93.8771 192.549 96.8682 199.623 96.8682C206.698 96.8682 214.374 93.0108 215.121 86.8637C218.129 93.1345 224.498 96.8682 231.926 96.8682C239.353 96.8682 243.564 93.9596 246.635 89.6278L239.291 84.6771C238.274 86.2242 235.204 88.2045 231.946 88.2045C228.689 88.2045 224.457 86.1005 223.295 81.7067H249.042V76.4879L249 76.4466ZM188.005 22.6906C192.237 22.6906 195.225 25.8054 195.495 28.652H179.769C181.055 24.7946 184.063 22.6906 188.005 22.6906ZM151.512 23.7013C156.138 23.7013 160.309 27.4969 160.309 33.1076C160.309 38.7184 156.159 42.5139 151.512 42.5139C146.865 42.5139 142.653 38.7184 142.653 33.1076C142.653 27.4969 146.595 23.7013 151.512 23.7013ZM81.6169 42.5345C76.5755 42.5345 72.4262 38.9453 72.4262 33.1283C72.4262 27.3112 76.5755 23.722 81.6169 23.722C86.6583 23.722 90.8076 27.5175 90.8076 33.1283C90.8076 38.739 86.6583 42.5345 81.6169 42.5345ZM18.3814 87.6888C13.755 87.6888 9.5849 83.8933 9.5849 78.2825C9.5849 72.6718 13.7342 68.8762 18.3814 68.8762C23.0287 68.8762 27.2402 72.6718 27.2402 78.2825C27.2402 83.8933 23.2984 87.6888 18.3814 87.6888ZM55.6007 87.6888C50.5593 87.6888 46.41 84.0996 46.41 78.2825C46.41 72.4655 50.5593 68.8762 55.6007 68.8762C60.6421 68.8762 64.7915 72.6718 64.7915 78.2825C64.7915 83.8933 60.6421 87.6888 55.6007 87.6888ZM119.168 86.8018H113.567C111.45 86.8018 110.289 85.9148 110.289 83.4807V69.0619H119.479C118.069 71.7641 117.301 74.8996 117.301 78.2825C117.301 81.6655 117.965 84.3471 119.147 86.8224L119.168 86.8018ZM127.591 73.8063C128.878 69.9489 131.886 67.8448 135.828 67.8448C139.769 67.8448 143.047 70.9596 143.317 73.8063H127.591ZM223.544 73.8063C224.851 69.9489 227.839 67.8448 231.78 67.8448C235.722 67.8448 239 70.9596 239.27 73.8063H223.544Z" fill="black"/>
<path d="M38.0284 3.09412H48.1112L41.3271 50.7856H31.2443L38.0284 3.09412Z" fill="black"/>
<path d="M61.7832 26.7542L58.4015 3.09412H48.3187L51.7004 26.7542H61.7832Z" fill="#00EB1E"/>
<path d="M215.121 69.6602C215.059 69.8046 214.996 69.9283 214.934 70.0727L215.204 70.0108C215.183 69.8871 215.162 69.7839 215.121 69.6602Z" fill="black"/>
<path d="M215.121 69.6602C215.059 69.8046 214.996 69.9283 214.934 70.0727L215.204 70.0108C215.183 69.8871 215.162 69.7839 215.121 69.6602Z" fill="black"/>
<path d="M121.305 106.563H123.089L121.844 113.144H125.288L124.956 114.856H119.728L121.305 106.584V106.563Z" fill="black"/>
<path d="M127.612 106.563H132.799L132.467 108.275H129.064L128.774 109.822H131.782L131.471 111.473H128.463L128.131 113.144H131.658L131.326 114.856H126.014L127.591 106.584L127.612 106.563Z" fill="black"/>
<path d="M132.736 112.566L134.438 112.071C134.396 112.752 134.936 113.288 135.807 113.288C136.678 113.288 137.363 112.937 137.363 112.339C137.363 111.741 137.052 111.72 136.595 111.596L135.537 111.287C134.604 111.019 133.815 110.359 133.815 109.183C133.815 107.512 135.164 106.419 136.989 106.419C138.815 106.419 139.624 107.244 139.686 108.605L137.965 109.059C137.965 108.647 137.695 108.069 136.865 108.069C136.035 108.069 135.662 108.44 135.662 108.956C135.662 109.472 135.911 109.492 136.305 109.595L137.28 109.864C138.504 110.214 139.189 110.957 139.189 112.091C139.189 113.804 137.923 115 135.682 115C133.442 115 132.757 113.907 132.736 112.566Z" fill="black"/>
<path d="M142.985 106.811L143.027 106.584H144.873L145.454 113.247H145.703L148.836 106.584H150.744L150.703 106.811L146.761 114.856H143.857L142.964 106.811H142.985Z" fill="black"/>
<path d="M150.392 111.596C150.392 108.812 152.612 106.398 155.578 106.398C158.545 106.398 159.126 107.863 159.126 109.822C159.126 112.607 156.906 115 153.939 115C150.973 115 150.392 113.577 150.392 111.596ZM154.271 113.226C155.869 113.226 157.238 111.823 157.238 110.152C157.238 108.482 156.387 108.172 155.226 108.172C154.064 108.172 152.259 109.596 152.259 111.246C152.259 112.896 153.13 113.205 154.271 113.205V113.226Z" fill="black"/>
<path d="M159.645 113.123H161.201L162.134 108.255H160.578L160.91 106.543H165.786L165.454 108.255H163.898L162.985 113.123H164.541L164.209 114.835H159.333L159.665 113.123H159.645Z" fill="black"/>
<path d="M167.362 106.563H172.549L172.217 108.275H168.815L168.524 109.822H171.532L171.221 111.473H168.213L167.881 113.144H171.408L171.076 114.856H165.765L167.342 106.584L167.362 106.563Z" fill="black"/>
<path d="M172.487 112.566L174.188 112.071C174.146 112.752 174.686 113.288 175.557 113.288C176.429 113.288 177.113 112.937 177.113 112.339C177.113 111.741 176.802 111.72 176.346 111.596L175.288 111.287C174.354 111.019 173.566 110.359 173.566 109.183C173.566 107.512 174.914 106.419 176.74 106.419C178.565 106.419 179.375 107.244 179.437 108.605L177.715 109.059C177.715 108.647 177.445 108.069 176.615 108.069C175.785 108.069 175.412 108.44 175.412 108.956C175.412 109.472 175.661 109.492 176.055 109.595L177.03 109.864C178.254 110.214 178.939 110.957 178.939 112.091C178.939 113.804 177.673 115 175.433 115C173.192 115 172.508 113.907 172.487 112.566Z" fill="black"/>
<path d="M183.524 106.563H186.926L187.217 113.226H187.404L188.669 106.563H190.433L188.856 114.835H185.433L185.142 108.172H184.955L183.69 114.835H181.926L183.503 106.563H183.524Z" fill="black"/>
<path d="M190.827 111.596C190.827 108.812 193.047 106.398 196.013 106.398C198.98 106.398 199.561 107.863 199.561 109.822C199.561 112.607 197.341 115 194.374 115C191.408 115 190.827 113.577 190.827 111.596ZM194.706 113.226C196.304 113.226 197.673 111.823 197.673 110.152C197.673 108.482 196.822 108.172 195.661 108.172C194.499 108.172 192.694 109.596 192.694 111.246C192.694 112.896 193.565 113.205 194.706 113.205V113.226Z" fill="black"/>
<path d="M200.412 111.741L201.387 106.563H203.192L202.217 111.72C202.051 112.628 202.383 113.288 203.42 113.288C204.457 113.288 205.059 112.628 205.225 111.72L206.2 106.563H207.984L207.009 111.72C206.615 113.783 205.308 115 203.129 115C200.951 115 200.038 113.618 200.412 111.741Z" fill="black"/>
<path d="M208.835 106.811L208.876 106.584H210.723L211.304 113.247H211.553L214.685 106.584H216.594L216.552 106.811L212.611 114.856H209.706L208.814 106.811H208.835Z" fill="black"/>
<path d="M217.631 106.563H222.818L222.486 108.275H219.083L218.793 109.822H221.801L221.49 111.473H218.482L218.15 113.144H221.677L221.345 114.856H216.034L217.61 106.584L217.631 106.563Z" fill="black"/>
<path d="M224.312 106.563H226.096L224.851 113.144H228.295L227.963 114.856H222.735L224.312 106.584V106.563Z" fill="black"/>
<path d="M230.619 106.563H232.403L231.158 113.144H234.602L234.27 114.856H229.042L230.619 106.584V106.563Z" fill="black"/>
<path d="M236.905 106.563H242.091L241.759 108.275H238.357L238.067 109.822H241.075L240.764 111.473H237.755L237.423 113.144H240.95L240.618 114.856H235.307L236.884 106.584L236.905 106.563Z" fill="black"/>
<path d="M242.05 112.566L243.751 112.071C243.71 112.752 244.249 113.288 245.12 113.288C245.992 113.288 246.676 112.937 246.676 112.339C246.676 111.741 246.365 111.72 245.909 111.596L244.851 111.287C243.917 111.019 243.129 110.359 243.129 109.183C243.129 107.512 244.477 106.419 246.303 106.419C248.129 106.419 248.938 107.244 249 108.605L247.278 109.059C247.278 108.647 247.008 108.069 246.178 108.069C245.349 108.069 244.975 108.44 244.975 108.956C244.975 109.472 245.224 109.492 245.618 109.595L246.593 109.864C247.817 110.214 248.502 110.957 248.502 112.091C248.502 113.804 247.237 115 244.996 115C242.755 115 242.071 113.907 242.05 112.566Z" fill="black"/>
</g>
<defs>
<clipPath id="clip0_923_3887">
<rect width="249" height="115" fill="white"/>
</clipPath>
</defs>
</svg>