<svg width="336" height="144" viewBox="0 0 336 144" fill="none" xmlns="http://www.w3.org/2000/svg">
<path d="M1.18555 1.18585V142.814L334.815 72L1.18555 1.18585Z" fill="white"/>
<path d="M65.0323 47.4353C65.0323 36.4235 61.4758 29.6471 57.9194 25.5812C56.2258 23.5482 54.5323 22.1929 53.1774 21.3459V89.6188C56.7339 85.7224 59.2742 81.3176 61.3065 76.0659C63.6774 68.9506 65.0323 59.1247 65.0323 47.4353ZM17.9516 30.6635C17.9516 30.1553 17.9516 29.6471 17.9516 29.1388C17.6129 20.3294 15.4113 16.0941 13.2097 13.8918C12.0242 12.7059 10.6694 12.0282 9.65323 11.8588V64.5459C10.5 62.6824 11.6855 60.1412 12.871 57.0918C15.4113 49.9765 17.9516 40.4894 17.9516 30.6635ZM97.379 52.3482C103.645 52.3482 108.556 47.2659 108.556 41.1671C108.556 34.8988 103.476 29.9859 97.379 29.9859C91.1129 29.9859 86.2016 35.0682 86.2016 41.1671C86.2016 47.4353 91.2823 52.3482 97.379 52.3482ZM33.7016 35.7459L31.8387 67.2565L37.9355 66.24L33.7016 35.7459ZM213.387 60.48C213.387 60.3106 213.387 59.9718 213.387 59.8024C213.387 58.6165 212.879 57.6 211.863 56.5835C210.847 55.5671 209.323 54.72 207.629 53.8729C205.089 52.8565 202.379 52.1788 200.347 51.6706V70.3059H200.855C206.952 69.9671 210 68.4424 211.524 66.9176C213.048 65.5624 213.387 63.36 213.387 60.48ZM0 0V144L336 72L0 0ZM97.379 25.7506C105.847 25.7506 112.79 32.6965 112.79 41.1671C112.79 49.6376 105.847 56.5835 97.379 56.5835C88.9113 56.5835 81.9678 49.6376 81.9678 41.1671C81.9678 32.6965 88.9113 25.7506 97.379 25.7506ZM74.3468 21.1765H78.5807V76.5741H74.3468V21.1765ZM48.7742 15.2471C52.5 16.0941 56.0565 16.7718 60.4597 22.3624C64.8629 27.2753 69.0968 35.2376 69.0968 47.4353C69.0968 59.2941 67.7419 69.6282 65.0323 77.2518C62.3226 84.8753 57.9194 90.8047 52.3306 96.0565L48.7742 99.4447V15.2471ZM30.8226 13.0447L35.0565 12.8753L46.7419 102.155L42.6774 102.325L38.4436 70.3059L31.6694 71.4918L28.7903 116.216L24.5565 116.386L30.8226 13.0447ZM5.41935 7.79294L7.28226 7.62353C7.28226 7.62353 7.62097 7.62353 8.12903 7.62353C9.65323 7.62353 13.0403 7.96235 16.2581 11.0118C19.4758 14.0612 22.0161 19.6518 22.1855 29.1388C22.1855 29.6471 22.1855 30.3247 22.1855 30.8329C22.1855 49.4682 13.5484 66.5788 11.5161 70.3059L23.879 121.299H19.4758L9.65323 79.9624V132.988H5.41935V7.79294ZM141.919 112.151L2.54032 141.967L142.089 32.5271V112.151H141.919ZM152.927 81.6565V107.407H148.694V37.7788L151.065 37.9482C151.234 37.9482 153.605 38.1176 156.653 39.4729C159.702 40.6588 163.427 42.8612 165.798 46.9271C167.492 49.6376 168.508 53.1953 168.508 57.4306C168.508 66.0706 164.444 72.1694 160.548 76.0659C157.331 79.4541 153.944 81.1482 152.927 81.6565ZM189.169 98.4282L184.597 78.4376H173.589L168 103.68H163.936L164.274 101.478L176.806 44.0471H180.871L193.403 98.2588L189.169 98.4282ZM213.048 93.1765L200.347 75.3882V96.5647H196.113L196.282 47.0965L198.653 47.4353C198.653 47.4353 201.194 47.7741 204.411 48.6212C207.629 49.4682 211.355 50.8235 214.234 53.1953C216.097 54.72 217.621 57.0918 217.79 59.9718C217.79 60.1412 217.79 60.48 217.79 60.6494C217.79 63.8682 217.282 67.4259 214.573 70.1365C212.54 72.3388 209.323 73.6941 204.75 74.3718L218.129 93.1765H213.048ZM226.597 91.3129H222.363V53.5341H226.597V91.3129ZM255.218 81.8259C253.524 83.1812 251.323 84.1976 248.782 85.0447C243.871 86.7388 237.605 87.5859 232.186 88.6024L231.508 84.5365C235.742 83.8588 240.145 83.0118 243.871 82.1647C247.766 81.3176 250.984 79.9624 252.508 78.6071C253.694 77.5906 254.032 76.9129 254.032 75.8965V75.7271C254.032 75.0494 253.863 74.7106 253.524 74.3718C253.355 74.0329 253.016 73.8635 252.339 73.5247C251.153 73.0165 249.121 72.8471 246.75 72.8471C244.887 72.8471 243.024 73.0165 241.161 73.0165C239.298 73.0165 237.435 73.0165 235.742 72.5082C234.048 72.1694 232.355 71.3223 231.169 69.6282C230.492 68.6118 229.984 67.2565 229.984 65.7318C229.984 64.2071 230.323 62.8518 231.169 61.6659C231.847 60.48 232.863 59.6329 234.048 59.1247C236.25 57.9388 238.96 57.6 241.669 57.6C248.444 57.6 255.726 59.8024 255.895 59.8024L254.71 63.8682C254.71 63.8682 254.371 63.6988 253.524 63.5294C252.847 63.36 251.661 63.0212 250.476 62.8518C247.935 62.3435 244.718 61.8353 241.669 61.8353C239.976 61.8353 238.282 62.0047 237.097 62.3435C235.911 62.6824 235.065 63.36 234.726 63.8682C234.387 64.3765 234.218 64.8847 234.218 65.7318C234.218 66.5788 234.387 66.9176 234.556 67.2565C234.726 67.5953 235.065 67.7647 235.573 68.1035C236.758 68.6118 238.79 68.7812 241.161 68.7812C243.024 68.7812 244.887 68.7812 246.75 68.6118C248.613 68.6118 250.476 68.6118 252.169 69.12C253.863 69.4588 255.556 70.3059 256.742 71.8306C257.589 72.8471 257.927 74.2024 258.097 75.5576C258.097 75.7271 258.097 75.8965 258.097 75.8965C258.266 78.4376 257.081 80.4706 255.218 81.8259ZM174.435 74.2024H183.581L178.839 54.0424L174.435 74.2024ZM158.177 45.0635C156.315 43.8776 154.452 43.0306 152.927 42.6918V76.9129C154.282 76.0659 155.976 74.88 157.669 73.1859C161.056 69.7976 164.444 64.7153 164.444 57.4306C164.274 50.6541 161.395 47.2659 158.177 45.0635ZM95.6855 99.9529C97.379 98.4282 104.492 94.8706 104.661 81.6565C104.661 72.3388 100.766 67.0871 95.3468 71.4918L91.621 74.5412V119.605H95.6855V99.9529ZM95.6855 76.4047C96.1936 75.8965 97.5484 74.88 97.5484 74.88C98.5645 74.0329 100.935 73.8635 100.935 81.9953C100.935 89.4494 98.0564 92.8376 95.8548 94.5318V94.1929L95.6855 76.4047ZM125.492 112.828C125.661 112.828 128.879 111.642 132.097 108.254C135.315 104.866 138.363 99.1059 138.363 90.1271C138.363 85.7224 137.685 82.5035 136.669 79.9624C135.145 76.2353 132.774 74.2024 131.25 72.1694C129.726 70.1365 128.71 68.1035 128.71 63.0212C128.71 56.4141 131.25 52.0094 133.96 48.96C135.315 47.4353 136.669 46.4188 137.516 45.7412C138.024 45.4024 138.363 45.0635 138.702 45.0635C138.871 45.0635 138.871 44.8941 139.04 44.8941L137.177 41.1671C137.008 41.1671 133.96 42.8612 130.742 46.2494C127.524 49.8071 124.476 55.3976 124.476 63.1906C124.476 67.0871 125.153 69.7976 126.169 72C127.863 75.3882 129.895 77.0824 131.419 79.2847C132.944 81.4871 134.129 84.3671 134.129 90.4659C134.129 98.5976 131.419 103.172 129.048 105.882C127.863 107.238 126.508 108.085 125.661 108.593C125.153 108.932 124.815 109.101 124.645 109.101C124.476 109.101 124.476 109.271 124.306 109.271L124.476 109.779L125.492 112.828ZM74.5161 104.527L77.3952 123.162H80.6129L83.6613 101.139V121.807H87.7258V80.3012H83.6613L78.75 115.031L74.5161 90.6353H70.4516V124.518H74.5161V104.527ZM114.145 115.878C116.855 115.878 119.903 115.2 120.919 105.544C121.427 102.494 121.258 98.2588 121.258 95.2094C121.258 87.0777 121.258 54.2118 121.258 54.2118H117.194C117.194 54.2118 117.194 87.0777 117.194 95.2094C117.194 104.188 116.685 107.915 116.347 109.271C115.669 111.812 113.637 111.981 112.79 109.609C112.282 107.746 111.944 103.68 111.944 96.0565C111.944 88.2635 111.944 61.6659 111.944 61.6659H107.879C107.879 61.6659 107.879 88.2635 107.879 96.0565C107.879 100.8 108.048 105.713 108.556 109.101C109.573 115.539 112.79 115.878 114.145 115.878ZM57.4113 120.452H62.8306L64.0161 126.212H68.25L62.4919 100.461H58.4274L51.4839 129.261H55.7177L57.4113 120.452ZM60.121 107.068L61.9839 116.725H57.9194L60.121 107.068ZM37.9355 129.431C39.2903 130.616 40.9839 130.955 42.8468 130.955C44.5403 130.955 45.8952 130.786 48.0968 130.108V126.042C48.0968 126.042 44.0323 126.889 42.8468 126.889C41.4919 126.889 39.7984 126.381 39.7984 124.518V124.348C39.7984 121.976 40.3065 120.452 42.6774 118.08C44.2016 116.386 48.4355 114.014 50.2984 112.998V108.593C50.2984 108.593 44.7097 111.304 41.1532 114.522C37.9355 117.064 36.0726 120.621 35.9032 124.179C35.9032 124.348 35.9032 124.348 35.9032 124.518C35.9032 126.551 36.5806 128.414 37.9355 129.431Z" fill="#EF4123"/>
</svg>
